<svg width="1512" height="982" viewBox="0 0 1512 982" fill="none" xmlns="http://www.w3.org/2000/svg">
<path d="M1512 0H0V980.366H1512V0Z" fill="#282C33"/>
<path d="M0 611.095H216.72V661.747H431.76V493.451H648.48V565.344H863.52V627.434H1080.24V648.676H1295.28V645.408H1512V513.058V982H1295.28H1080.24H863.52H648.48H431.76H216.72H0V611.095Z" fill="#2B2E35"/>
<path d="M0 771.221H216.72V635.604H431.76V702.596H648.48V632.336H863.52V668.283H1080.24V777.757H1295.28V640.506H1512V774.489V982H1295.28H1080.24H863.52H648.48H431.76H216.72H0V771.221Z" fill="#24272E"/>
<path d="M0 874.16H216.72V857.82H431.76V901.937H648.48V818.606H863.52V798.998H1080.24V849.651H1295.28V825.141H1512V852.918V982H1295.28H1080.24H863.52H648.48H431.76H216.72H0V874.16Z" fill="#1E2127"/>
</svg>
